# xmcd CD database file
#
# Track frame offsets:
#	150
#	21111
#	39719
#	56363
#	77026
#	95418
#	112612
#	132783
#	153798
#	173060
#	190980
#	209522
#
# Disc length: 2995 seconds
#
# Revision: 0
# Processed by: cddbd v1.5.2PL0 Copyright (c) Steve Scherf et al.
# Submitted via: CDex 1.70beta2
#
DISCID=8f0bb10c
DTITLE=Haila - Mala
DYEAR=2012
DGENRE=Salsa
TTITLE0=Mala
TTITLE1=a dónde va tu amor
TTITLE2=fuiste mio
TTITLE3=aléjate
TTITLE4=de hoy en adelante
TTITLE5=muriéndome
TTITLE6=lo siento
TTITLE7=baila
TTITLE8=la pelona
TTITLE9=seguire de pie
TTITLE10=mala
TTITLE11=voy a prohibirme
EXTD=YEAR: 2012
EXTT0=
EXTT1=
EXTT2=
EXTT3=
EXTT4=
EXTT5=
EXTT6=
EXTT7=
EXTT8=
EXTT9=
EXTT10=
EXTT11=
PLAYORDER=
